<svg id="visual" viewBox="0 0 900 600" width="900" height="600" xmlns="http://www.w3.org/2000/svg" xmlns:xlink="http://www.w3.org/1999/xlink" version="1.1"><rect x="0" y="0" width="900" height="600" fill="#001220"></rect><defs><linearGradient id="grad1_0" x1="33.3%" y1="0%" x2="100%" y2="100%"><stop offset="20%" stop-color="#001220" stop-opacity="1"></stop><stop offset="80%" stop-color="#001220" stop-opacity="1"></stop></linearGradient></defs><defs><linearGradient id="grad2_0" x1="0%" y1="0%" x2="66.7%" y2="100%"><stop offset="20%" stop-color="#001220" stop-opacity="1"></stop><stop offset="80%" stop-color="#001220" stop-opacity="1"></stop></linearGradient></defs><g transform="translate(900, 0)"><path d="M0 432.7C-42.4 392.1 -84.7 351.5 -139.3 336.3C-193.9 321.1 -260.6 331.3 -305.9 305.9C-351.3 280.6 -375.1 219.6 -392.6 162.6C-410.2 105.7 -421.4 52.9 -432.7 0L0 0Z" fill="#6600FF"></path></g><g transform="translate(0, 600)"><path d="M0 -432.7C46.7 -393.1 93.4 -353.5 135.1 -326.1C176.8 -298.8 213.5 -283.7 261.6 -261.6C309.8 -239.5 369.3 -210.4 399.7 -165.6C430.1 -120.8 431.4 -60.4 432.7 0L0 0Z" fill="#6600FF"></path></g></svg>