<svg id="visual" viewBox="0 0 900 600" width="900" height="600" xmlns="http://www.w3.org/2000/svg" xmlns:xlink="http://www.w3.org/1999/xlink" version="1.1"><path d="M0 371L113 404L225 414L338 355L450 413L563 398L675 424L788 414L900 420L900 601L788 601L675 601L563 601L450 601L338 601L225 601L113 601L0 601Z" fill="#0066ff"></path><path d="M0 398L113 391L225 433L338 445L450 435L563 378L675 378L788 387L900 423L900 601L788 601L675 601L563 601L450 601L338 601L225 601L113 601L0 601Z" fill="#265cee"></path><path d="M0 418L113 417L225 402L338 422L450 390L563 428L675 419L788 389L900 415L900 601L788 601L675 601L563 601L450 601L338 601L225 601L113 601L0 601Z" fill="#3352de"></path><path d="M0 462L113 446L225 448L338 475L450 439L563 417L675 409L788 460L900 431L900 601L788 601L675 601L563 601L450 601L338 601L225 601L113 601L0 601Z" fill="#3b48ce"></path><path d="M0 432L113 473L225 435L338 464L450 454L563 461L675 431L788 462L900 470L900 601L788 601L675 601L563 601L450 601L338 601L225 601L113 601L0 601Z" fill="#3f3ebe"></path><path d="M0 461L113 461L225 490L338 487L450 503L563 479L675 457L788 499L900 497L900 601L788 601L675 601L563 601L450 601L338 601L225 601L113 601L0 601Z" fill="#4134ae"></path><path d="M0 523L113 507L225 484L338 495L450 505L563 499L675 516L788 485L900 479L900 601L788 601L675 601L563 601L450 601L338 601L225 601L113 601L0 601Z" fill="#412a9e"></path><path d="M0 518L113 498L225 534L338 498L450 532L563 504L675 528L788 513L900 529L900 601L788 601L675 601L563 601L450 601L338 601L225 601L113 601L0 601Z" fill="#40208f"></path><path d="M0 550L113 524L225 527L338 540L450 555L563 531L675 531L788 540L900 542L900 601L788 601L675 601L563 601L450 601L338 601L225 601L113 601L0 601Z" fill="#3d1680"></path><path d="M0 551L113 543L225 540L338 540L450 559L563 561L675 566L788 560L900 566L900 601L788 601L675 601L563 601L450 601L338 601L225 601L113 601L0 601Z" fill="#3a0b72"></path><path d="M0 562L113 563L225 568L338 566L450 576L563 566L675 579L788 562L900 563L900 601L788 601L675 601L563 601L450 601L338 601L225 601L113 601L0 601Z" fill="#360064"></path></svg>