<svg id="visual" viewBox="0 0 900 600" width="900" height="600" xmlns="http://www.w3.org/2000/svg" xmlns:xlink="http://www.w3.org/1999/xlink" version="1.1"><path d="M0 301L25 303C50 305 100 309 150 322.3C200 335.7 250 358.3 300 360.8C350 363.3 400 345.7 450 336.3C500 327 550 326 600 324.2C650 322.3 700 319.7 750 320.3C800 321 850 325 875 327L900 329L900 601L875 601C850 601 800 601 750 601C700 601 650 601 600 601C550 601 500 601 450 601C400 601 350 601 300 601C250 601 200 601 150 601C100 601 50 601 25 601L0 601Z" fill="#fa7268"></path><path d="M0 421L25 417.2C50 413.3 100 405.7 150 400C200 394.3 250 390.7 300 391.8C350 393 400 399 450 400.3C500 401.7 550 398.3 600 402.8C650 407.3 700 419.7 750 424.8C800 430 850 428 875 427L900 426L900 601L875 601C850 601 800 601 750 601C700 601 650 601 600 601C550 601 500 601 450 601C400 601 350 601 300 601C250 601 200 601 150 601C100 601 50 601 25 601L0 601Z" fill="#f16367"></path><path d="M0 391L25 400.3C50 409.7 100 428.3 150 434.7C200 441 250 435 300 430C350 425 400 421 450 423.5C500 426 550 435 600 440.3C650 445.7 700 447.3 750 448.7C800 450 850 451 875 451.5L900 452L900 601L875 601C850 601 800 601 750 601C700 601 650 601 600 601C550 601 500 601 450 601C400 601 350 601 300 601C250 601 200 601 150 601C100 601 50 601 25 601L0 601Z" fill="#e85467"></path><path d="M0 495L25 491C50 487 100 479 150 477C200 475 250 479 300 482.2C350 485.3 400 487.7 450 489.2C500 490.7 550 491.3 600 483.8C650 476.3 700 460.7 750 460.8C800 461 850 477 875 485L900 493L900 601L875 601C850 601 800 601 750 601C700 601 650 601 600 601C550 601 500 601 450 601C400 601 350 601 300 601C250 601 200 601 150 601C100 601 50 601 25 601L0 601Z" fill="#de4467"></path><path d="M0 526L25 525.3C50 524.7 100 523.3 150 522.7C200 522 250 522 300 519.5C350 517 400 512 450 510.2C500 508.3 550 509.7 600 509.5C650 509.3 700 507.7 750 504.2C800 500.7 850 495.3 875 492.7L900 490L900 601L875 601C850 601 800 601 750 601C700 601 650 601 600 601C550 601 500 601 450 601C400 601 350 601 300 601C250 601 200 601 150 601C100 601 50 601 25 601L0 601Z" fill="#d23467"></path><path d="M0 545L25 544.3C50 543.7 100 542.3 150 544C200 545.7 250 550.3 300 554.5C350 558.7 400 562.3 450 557C500 551.7 550 537.3 600 531.3C650 525.3 700 527.7 750 532.2C800 536.7 850 543.3 875 546.7L900 550L900 601L875 601C850 601 800 601 750 601C700 601 650 601 600 601C550 601 500 601 450 601C400 601 350 601 300 601C250 601 200 601 150 601C100 601 50 601 25 601L0 601Z" fill="#c62368"></path></svg>